  0
SECTION
  2
HEADER
  9
$ACADVER
  1
AC1014
  9
$HANDSEED
  5
FFFF
  9
$MEASUREMENT
 70
     1
  0
ENDSEC
  0
SECTION
  2
TABLES
  0
TABLE
  2
VPORT
  5
8
330
0
100
AcDbSymbolTable
 70
     4
  0
VPORT
  5
2E
330
8
100
AcDbSymbolTableRecord
100
AcDbViewportTableRecord
  2
*ACTIVE
 70
     0
 10
0.0
 20
0.0
 11
1.0
 21
1.0
 12
210.0
 22
148.5
 13
0.0
 23
0.0
 14
10.0
 24
10.0
 15
10.0
 25
10.0
 16
0.0
 26
0.0
 36
1.0
 17
0.0
 27
0.0
 37
0.0
 40
341.0
 41
1.24
 42
50.0
 43
0.0
 44
0.0
 50
0.0
 51
0.0
 71
     0
 72
   100
 73
     1
 74
     3
 75
     0
 76
     0
 77
     0
 78
     0
  0
ENDTAB
  0
TABLE
  2
LTYPE
  5
5
330
0
100
AcDbSymbolTable
 70
     1
  0
LTYPE
  5
14
330
5
100
AcDbSymbolTableRecord
100
AcDbLinetypeTableRecord
  2
BYBLOCK
 70
     0
  3

 72
    65
 73
     0
 40
0.0
  0
LTYPE
  5
15
330
5
100
AcDbSymbolTableRecord
100
AcDbLinetypeTableRecord
  2
BYLAYER
 70
     0
  3

 72
    65
 73
     0
 40
0.0
  0
LTYPE
  5
16
330
5
100
AcDbSymbolTableRecord
100
AcDbLinetypeTableRecord
  2
CONTINUOUS
 70
     0
  3
Solid line
 72
    65
 73
     0
 40
0.0
  0
ENDTAB
  0
TABLE
  2
LAYER
  5
2
100
AcDbSymbolTable
 70
1
  0
LAYER
  5
50
100
AcDbSymbolTableRecord
100
AcDbLayerTableRecord
  2
0
 70
0
  6
CONTINUOUS
  0
ENDTAB
  0
TABLE
  2
STYLE
  5
3
330
0
100
AcDbSymbolTable
 70
     1
  0
STYLE
  5
11
330
3
100
AcDbSymbolTableRecord
100
AcDbTextStyleTableRecord
  2
STANDARD
 70
     0
 40
0.0
 41
1.0
 50
0.0
 71
     0
 42
2.5
  3
txt
  4

  0
ENDTAB
  0
TABLE
  2
VIEW
  5
6
330
0
100
AcDbSymbolTable
 70
     0
  0
ENDTAB
  0
TABLE
  2
UCS
  5
7
330
0
100
AcDbSymbolTable
 70
     0
  0
ENDTAB
  0
TABLE
  2
APPID
  5
9
330
0
100
AcDbSymbolTable
 70
     2
  0
APPID
  5
12
330
9
100
AcDbSymbolTableRecord
100
AcDbRegAppTableRecord
  2
ACAD
 70
     0
  0
ENDTAB
  0
TABLE
  2
DIMSTYLE
  5
A
330
0
100
AcDbSymbolTable
 70
     1
  0
DIMSTYLE
105
27
330
A
100
AcDbSymbolTableRecord
100
AcDbDimStyleTableRecord
  2
ISO-25
 70
     0
  3

  4

  5

  6

  7

 40
1.0
 41
2.5
 42
0.625
 43
3.75
 44
1.25
 45
0.0
 46
0.0
 47
0.0
 48
0.0
140
2.5
141
2.5
142
0.0
143
0.03937007874016
144
1.0
145
0.0
146
1.0
147
0.625
 71
     0
 72
     0
 73
     0
 74
     0
 75
     0
 76
     0
 77
     1
 78
     8
170
     0
171
     3
172
     1
173
     0
174
     0
175
     0
176
     0
177
     0
178
     0
270
     2
271
     2
272
     2
273
     2
274
     3
340
11
275
     0
280
     0
281
     0
282
     0
283
     0
284
     8
285
     0
286
     0
287
     3
288
     0
  0
ENDTAB
  0
TABLE
  2
BLOCK_RECORD
  5
1
330
0
100
AcDbSymbolTable
 70
     1
  0
BLOCK_RECORD
  5
1F
330
1
100
AcDbSymbolTableRecord
100
AcDbBlockTableRecord
  2
*MODEL_SPACE
  0
BLOCK_RECORD
  5
1B
330
1
100
AcDbSymbolTableRecord
100
AcDbBlockTableRecord
  2
*PAPER_SPACE
  0
ENDTAB
  0
ENDSEC
  0
SECTION
  2
BLOCKS
  0
BLOCK
  5
20
330
1F
100
AcDbEntity
  8
0
100
AcDbBlockBegin
  2
*MODEL_SPACE
 70
     0
 10
0.0
 20
0.0
 30
0.0
  3
*MODEL_SPACE
  1

  0
ENDBLK
  5
21
330
1F
100
AcDbEntity
  8
0
100
AcDbBlockEnd
  0
BLOCK
  5
1C
330
1B
100
AcDbEntity
 67
     1
  8
0
100
AcDbBlockBegin
  2
*PAPER_SPACE
  1

  0
ENDBLK
  5
1D
330
1B
100
AcDbEntity
 67
     1
  8
0
100
AcDbBlockEnd
  0
ENDSEC
  0
SECTION
  2
ENTITIES
  0
SPLINE
  5
100
100
AcDbEntity
  8
0
 62
7
100
AcDbSpline
 70
8
 71
3
 72
8
 73
4
 74
0
 40
0
 40
0
 40
0
 40
0
 40
1
 40
1
 40
1
 40
1
 10
73.551796
 20
-41.297758
 30
0.0
 10
73.086664
 20
-41.297758
 30
0.0
 10
72.667333
 20
-41.577947
 30
0.0
 10
72.489334
 20
-42.007673
 30
0.0
  0
SPLINE
  5
101
100
AcDbEntity
  8
0
 62
7
100
AcDbSpline
 70
8
 71
3
 72
8
 73
4
 74
0
 40
0
 40
0
 40
0
 40
0
 40
1
 40
1
 40
1
 40
1
 10
72.489334
 20
-42.007673
 30
0.0
 10
72.311336
 20
-42.437398
 30
0.0
 10
72.409725
 20
-42.932034
 30
0.0
 10
72.738623
 20
-43.260932
 30
0.0
  0
SPLINE
  5
102
100
AcDbEntity
  8
0
 62
7
100
AcDbSpline
 70
8
 71
3
 72
8
 73
4
 74
0
 40
0
 40
0
 40
0
 40
0
 40
1
 40
1
 40
1
 40
1
 10
72.738623
 20
-43.260932
 30
0.0
 10
73.067521
 20
-43.589829
 30
0.0
 10
73.562156
 20
-43.688219
 30
0.0
 10
73.991882
 20
-43.510220
 30
0.0
  0
SPLINE
  5
103
100
AcDbEntity
  8
0
 62
7
100
AcDbSpline
 70
8
 71
3
 72
8
 73
4
 74
0
 40
0
 40
0
 40
0
 40
0
 40
1
 40
1
 40
1
 40
1
 10
73.991882
 20
-43.510220
 30
0.0
 10
74.421608
 20
-43.332222
 30
0.0
 10
74.701796
 20
-42.912890
 30
0.0
 10
74.701796
 20
-42.447759
 30
0.0
  0
SPLINE
  5
104
100
AcDbEntity
  8
0
 62
7
100
AcDbSpline
 70
8
 71
3
 72
8
 73
4
 74
0
 40
0
 40
0
 40
0
 40
0
 40
1
 40
1
 40
1
 40
1
 10
74.701796
 20
-42.447759
 30
0.0
 10
74.701796
 20
-42.142760
 30
0.0
 10
74.580636
 20
-41.850253
 30
0.0
 10
74.364969
 20
-41.634586
 30
0.0
  0
SPLINE
  5
105
100
AcDbEntity
  8
0
 62
7
100
AcDbSpline
 70
8
 71
3
 72
8
 73
4
 74
0
 40
0
 40
0
 40
0
 40
0
 40
1
 40
1
 40
1
 40
1
 10
74.364969
 20
-41.634586
 30
0.0
 10
74.149302
 20
-41.418919
 30
0.0
 10
73.856795
 20
-41.297758
 30
0.0
 10
73.551796
 20
-41.297758
 30
0.0
  0
SPLINE
  5
106
100
AcDbEntity
  8
0
 62
7
100
AcDbSpline
 70
8
 71
3
 72
8
 73
4
 74
0
 40
0
 40
0
 40
0
 40
0
 40
1
 40
1
 40
1
 40
1
 10
5.098821
 20
-77.492758
 30
0.0
 10
4.633690
 20
-77.492758
 30
0.0
 10
4.214358
 20
-77.772947
 30
0.0
 10
4.036360
 20
-78.202673
 30
0.0
  0
SPLINE
  5
107
100
AcDbEntity
  8
0
 62
7
100
AcDbSpline
 70
8
 71
3
 72
8
 73
4
 74
0
 40
0
 40
0
 40
0
 40
0
 40
1
 40
1
 40
1
 40
1
 10
4.036360
 20
-78.202673
 30
0.0
 10
3.858362
 20
-78.632398
 30
0.0
 10
3.956751
 20
-79.127034
 30
0.0
 10
4.285648
 20
-79.455932
 30
0.0
  0
SPLINE
  5
108
100
AcDbEntity
  8
0
 62
7
100
AcDbSpline
 70
8
 71
3
 72
8
 73
4
 74
0
 40
0
 40
0
 40
0
 40
0
 40
1
 40
1
 40
1
 40
1
 10
4.285648
 20
-79.455932
 30
0.0
 10
4.614546
 20
-79.784829
 30
0.0
 10
5.109182
 20
-79.883219
 30
0.0
 10
5.538907
 20
-79.705220
 30
0.0
  0
SPLINE
  5
109
100
AcDbEntity
  8
0
 62
7
100
AcDbSpline
 70
8
 71
3
 72
8
 73
4
 74
0
 40
0
 40
0
 40
0
 40
0
 40
1
 40
1
 40
1
 40
1
 10
5.538907
 20
-79.705220
 30
0.0
 10
5.968633
 20
-79.527222
 30
0.0
 10
6.248822
 20
-79.107890
 30
0.0
 10
6.248822
 20
-78.642759
 30
0.0
  0
SPLINE
  5
10a
100
AcDbEntity
  8
0
 62
7
100
AcDbSpline
 70
8
 71
3
 72
8
 73
4
 74
0
 40
0
 40
0
 40
0
 40
0
 40
1
 40
1
 40
1
 40
1
 10
6.248822
 20
-78.642759
 30
0.0
 10
6.248822
 20
-78.007631
 30
0.0
 10
5.733949
 20
-77.492758
 30
0.0
 10
5.098821
 20
-77.492758
 30
0.0
  0
LWPOLYLINE
  5
10b
100
AcDbEntity
  8
0
 62
7
100
AcDbPolyline
 90
1
 70
1
 10
73.551796
 20
-41.297758
 30
0.0
  0
SPLINE
  5
10c
100
AcDbEntity
  8
0
 62
7
100
AcDbSpline
 70
8
 71
3
 72
8
 73
4
 74
0
 40
0
 40
0
 40
0
 40
0
 40
1
 40
1
 40
1
 40
1
 10
76.980796
 20
-102.892758
 30
0.0
 10
76.515664
 20
-102.892758
 30
0.0
 10
76.096333
 20
-103.172947
 30
0.0
 10
75.918334
 20
-103.602673
 30
0.0
  0
SPLINE
  5
10d
100
AcDbEntity
  8
0
 62
7
100
AcDbSpline
 70
8
 71
3
 72
8
 73
4
 74
0
 40
0
 40
0
 40
0
 40
0
 40
1
 40
1
 40
1
 40
1
 10
75.918334
 20
-103.602673
 30
0.0
 10
75.740336
 20
-104.032398
 30
0.0
 10
75.838725
 20
-104.527034
 30
0.0
 10
76.167623
 20
-104.855932
 30
0.0
  0
SPLINE
  5
10e
100
AcDbEntity
  8
0
 62
7
100
AcDbSpline
 70
8
 71
3
 72
8
 73
4
 74
0
 40
0
 40
0
 40
0
 40
0
 40
1
 40
1
 40
1
 40
1
 10
76.167623
 20
-104.855932
 30
0.0
 10
76.496521
 20
-105.184829
 30
0.0
 10
76.991156
 20
-105.283219
 30
0.0
 10
77.420882
 20
-105.105220
 30
0.0
  0
SPLINE
  5
10f
100
AcDbEntity
  8
0
 62
7
100
AcDbSpline
 70
8
 71
3
 72
8
 73
4
 74
0
 40
0
 40
0
 40
0
 40
0
 40
1
 40
1
 40
1
 40
1
 10
77.420882
 20
-105.105220
 30
0.0
 10
77.850608
 20
-104.927222
 30
0.0
 10
78.130796
 20
-104.507890
 30
0.0
 10
78.130796
 20
-104.042759
 30
0.0
  0
SPLINE
  5
110
100
AcDbEntity
  8
0
 62
7
100
AcDbSpline
 70
8
 71
3
 72
8
 73
4
 74
0
 40
0
 40
0
 40
0
 40
0
 40
1
 40
1
 40
1
 40
1
 10
78.130796
 20
-104.042759
 30
0.0
 10
78.130796
 20
-103.737760
 30
0.0
 10
78.009636
 20
-103.445253
 30
0.0
 10
77.793969
 20
-103.229586
 30
0.0
  0
SPLINE
  5
111
100
AcDbEntity
  8
0
 62
7
100
AcDbSpline
 70
8
 71
3
 72
8
 73
4
 74
0
 40
0
 40
0
 40
0
 40
0
 40
1
 40
1
 40
1
 40
1
 10
77.793969
 20
-103.229586
 30
0.0
 10
77.578302
 20
-103.013919
 30
0.0
 10
77.285795
 20
-102.892758
 30
0.0
 10
76.980796
 20
-102.892758
 30
0.0
  0
LWPOLYLINE
  5
112
100
AcDbEntity
  8
0
 62
7
100
AcDbPolyline
 90
1
 70
1
 10
5.098821
 20
-77.492758
 30
0.0
  0
SPLINE
  5
113
100
AcDbEntity
  8
0
 62
7
100
AcDbSpline
 70
8
 71
3
 72
8
 73
4
 74
0
 40
0
 40
0
 40
0
 40
0
 40
1
 40
1
 40
1
 40
1
 10
152.291796
 20
-85.493758
 30
0.0
 10
151.826664
 20
-85.493758
 30
0.0
 10
151.407333
 20
-85.773947
 30
0.0
 10
151.229334
 20
-86.203673
 30
0.0
  0
SPLINE
  5
114
100
AcDbEntity
  8
0
 62
7
100
AcDbSpline
 70
8
 71
3
 72
8
 73
4
 74
0
 40
0
 40
0
 40
0
 40
0
 40
1
 40
1
 40
1
 40
1
 10
151.229334
 20
-86.203673
 30
0.0
 10
151.051336
 20
-86.633398
 30
0.0
 10
151.149725
 20
-87.128034
 30
0.0
 10
151.478623
 20
-87.456932
 30
0.0
  0
SPLINE
  5
115
100
AcDbEntity
  8
0
 62
7
100
AcDbSpline
 70
8
 71
3
 72
8
 73
4
 74
0
 40
0
 40
0
 40
0
 40
0
 40
1
 40
1
 40
1
 40
1
 10
151.478623
 20
-87.456932
 30
0.0
 10
151.807521
 20
-87.785829
 30
0.0
 10
152.302156
 20
-87.884219
 30
0.0
 10
152.731882
 20
-87.706220
 30
0.0
  0
SPLINE
  5
116
100
AcDbEntity
  8
0
 62
7
100
AcDbSpline
 70
8
 71
3
 72
8
 73
4
 74
0
 40
0
 40
0
 40
0
 40
0
 40
1
 40
1
 40
1
 40
1
 10
152.731882
 20
-87.706220
 30
0.0
 10
153.161608
 20
-87.528222
 30
0.0
 10
153.441796
 20
-87.108890
 30
0.0
 10
153.441796
 20
-86.643759
 30
0.0
  0
SPLINE
  5
117
100
AcDbEntity
  8
0
 62
7
100
AcDbSpline
 70
8
 71
3
 72
8
 73
4
 74
0
 40
0
 40
0
 40
0
 40
0
 40
1
 40
1
 40
1
 40
1
 10
153.441796
 20
-86.643759
 30
0.0
 10
153.441796
 20
-86.338760
 30
0.0
 10
153.320636
 20
-86.046253
 30
0.0
 10
153.104969
 20
-85.830586
 30
0.0
  0
SPLINE
  5
118
100
AcDbEntity
  8
0
 62
7
100
AcDbSpline
 70
8
 71
3
 72
8
 73
4
 74
0
 40
0
 40
0
 40
0
 40
0
 40
1
 40
1
 40
1
 40
1
 10
153.104969
 20
-85.830586
 30
0.0
 10
152.889302
 20
-85.614919
 30
0.0
 10
152.596795
 20
-85.493758
 30
0.0
 10
152.291796
 20
-85.493758
 30
0.0
  0
LWPOLYLINE
  5
119
100
AcDbEntity
  8
0
 62
7
100
AcDbPolyline
 90
1
 70
1
 10
76.980796
 20
-102.892758
 30
0.0
  0
SPLINE
  5
11a
100
AcDbEntity
  8
0
 62
7
100
AcDbSpline
 70
8
 71
3
 72
8
 73
4
 74
0
 40
0
 40
0
 40
0
 40
0
 40
1
 40
1
 40
1
 40
1
 10
130.574796
 20
-9.992309
 30
0.0
 10
130.109664
 20
-9.992309
 30
0.0
 10
129.690333
 20
-10.272498
 30
0.0
 10
129.512334
 20
-10.702223
 30
0.0
  0
SPLINE
  5
11b
100
AcDbEntity
  8
0
 62
7
100
AcDbSpline
 70
8
 71
3
 72
8
 73
4
 74
0
 40
0
 40
0
 40
0
 40
0
 40
1
 40
1
 40
1
 40
1
 10
129.512334
 20
-10.702223
 30
0.0
 10
129.334336
 20
-11.131949
 30
0.0
 10
129.432725
 20
-11.626585
 30
0.0
 10
129.761623
 20
-11.955482
 30
0.0
  0
SPLINE
  5
11c
100
AcDbEntity
  8
0
 62
7
100
AcDbSpline
 70
8
 71
3
 72
8
 73
4
 74
0
 40
0
 40
0
 40
0
 40
0
 40
1
 40
1
 40
1
 40
1
 10
129.761623
 20
-11.955482
 30
0.0
 10
130.090521
 20
-12.284380
 30
0.0
 10
130.585156
 20
-12.382769
 30
0.0
 10
131.014882
 20
-12.204771
 30
0.0
  0
SPLINE
  5
11d
100
AcDbEntity
  8
0
 62
7
100
AcDbSpline
 70
8
 71
3
 72
8
 73
4
 74
0
 40
0
 40
0
 40
0
 40
0
 40
1
 40
1
 40
1
 40
1
 10
131.014882
 20
-12.204771
 30
0.0
 10
131.444608
 20
-12.026773
 30
0.0
 10
131.724796
 20
-11.607441
 30
0.0
 10
131.724796
 20
-11.142309
 30
0.0
  0
SPLINE
  5
11e
100
AcDbEntity
  8
0
 62
7
100
AcDbSpline
 70
8
 71
3
 72
8
 73
4
 74
0
 40
0
 40
0
 40
0
 40
0
 40
1
 40
1
 40
1
 40
1
 10
131.724796
 20
-11.142309
 30
0.0
 10
131.724796
 20
-10.837310
 30
0.0
 10
131.603636
 20
-10.544803
 30
0.0
 10
131.387969
 20
-10.329136
 30
0.0
  0
SPLINE
  5
11f
100
AcDbEntity
  8
0
 62
7
100
AcDbSpline
 70
8
 71
3
 72
8
 73
4
 74
0
 40
0
 40
0
 40
0
 40
0
 40
1
 40
1
 40
1
 40
1
 10
131.387969
 20
-10.329136
 30
0.0
 10
131.172302
 20
-10.113470
 30
0.0
 10
130.879795
 20
-9.992309
 30
0.0
 10
130.574796
 20
-9.992309
 30
0.0
  0
LWPOLYLINE
  5
120
100
AcDbEntity
  8
0
 62
7
100
AcDbPolyline
 90
1
 70
1
 10
152.291796
 20
-85.493758
 30
0.0
  0
SPLINE
  5
121
100
AcDbEntity
  8
0
 62
7
100
AcDbSpline
 70
8
 71
3
 72
8
 73
4
 74
0
 40
0
 40
0
 40
0
 40
0
 40
1
 40
1
 40
1
 40
1
 10
35.578796
 20
-5.801309
 30
0.0
 10
35.113664
 20
-5.801309
 30
0.0
 10
34.694333
 20
-6.081498
 30
0.0
 10
34.516334
 20
-6.511223
 30
0.0
  0
SPLINE
  5
122
100
AcDbEntity
  8
0
 62
7
100
AcDbSpline
 70
8
 71
3
 72
8
 73
4
 74
0
 40
0
 40
0
 40
0
 40
0
 40
1
 40
1
 40
1
 40
1
 10
34.516334
 20
-6.511223
 30
0.0
 10
34.338336
 20
-6.940949
 30
0.0
 10
34.436725
 20
-7.435585
 30
0.0
 10
34.765623
 20
-7.764482
 30
0.0
  0
SPLINE
  5
123
100
AcDbEntity
  8
0
 62
7
100
AcDbSpline
 70
8
 71
3
 72
8
 73
4
 74
0
 40
0
 40
0
 40
0
 40
0
 40
1
 40
1
 40
1
 40
1
 10
34.765623
 20
-7.764482
 30
0.0
 10
35.094521
 20
-8.093380
 30
0.0
 10
35.589156
 20
-8.191769
 30
0.0
 10
36.018882
 20
-8.013771
 30
0.0
  0
SPLINE
  5
124
100
AcDbEntity
  8
0
 62
7
100
AcDbSpline
 70
8
 71
3
 72
8
 73
4
 74
0
 40
0
 40
0
 40
0
 40
0
 40
1
 40
1
 40
1
 40
1
 10
36.018882
 20
-8.013771
 30
0.0
 10
36.448608
 20
-7.835773
 30
0.0
 10
36.728796
 20
-7.416441
 30
0.0
 10
36.728796
 20
-6.951309
 30
0.0
  0
SPLINE
  5
125
100
AcDbEntity
  8
0
 62
7
100
AcDbSpline
 70
8
 71
3
 72
8
 73
4
 74
0
 40
0
 40
0
 40
0
 40
0
 40
1
 40
1
 40
1
 40
1
 10
36.728796
 20
-6.951309
 30
0.0
 10
36.728796
 20
-6.646310
 30
0.0
 10
36.607636
 20
-6.353803
 30
0.0
 10
36.391969
 20
-6.138136
 30
0.0
  0
SPLINE
  5
126
100
AcDbEntity
  8
0
 62
7
100
AcDbSpline
 70
8
 71
3
 72
8
 73
4
 74
0
 40
0
 40
0
 40
0
 40
0
 40
1
 40
1
 40
1
 40
1
 10
36.391969
 20
-6.138136
 30
0.0
 10
36.176302
 20
-5.922470
 30
0.0
 10
35.883795
 20
-5.801309
 30
0.0
 10
35.578796
 20
-5.801309
 30
0.0
  0
LWPOLYLINE
  5
127
100
AcDbEntity
  8
0
 62
7
100
AcDbPolyline
 90
1
 70
1
 10
130.574796
 20
-9.992309
 30
0.0
  0
LWPOLYLINE
  5
128
100
AcDbEntity
  8
0
 62
7
100
AcDbPolyline
 90
1
 70
1
 10
35.578796
 20
-5.801309
 30
0.0
  0
LWPOLYLINE
  5
129
100
AcDbEntity
  8
0
 62
7
100
AcDbPolyline
 90
2
 70
0
 10
147.286980
 20
-4.422181
 30
0.0
 10
155.033980
 20
-4.422181
 30
0.0
  0
LWPOLYLINE
  5
12a
100
AcDbEntity
  8
0
 62
7
100
AcDbPolyline
 90
2
 70
0
 10
144.289780
 20
-1.424981
 30
0.0
 10
147.286980
 20
-4.422181
 30
0.0
  0
LWPOLYLINE
  5
12b
100
AcDbEntity
  8
0
 62
7
100
AcDbPolyline
 90
2
 70
0
 10
130.383280
 20
-1.424981
 30
0.0
 10
144.289780
 20
-1.424981
 30
0.0
  0
LWPOLYLINE
  5
12c
100
AcDbEntity
  8
0
 62
7
100
AcDbPolyline
 90
2
 70
0
 10
127.398780
 20
-4.409481
 30
0.0
 10
16.553180
 20
-4.422181
 30
0.0
  0
LWPOLYLINE
  5
12d
100
AcDbEntity
  8
0
 62
7
100
AcDbPolyline
 90
2
 70
0
 10
130.383280
 20
-1.424981
 30
0.0
 10
127.398780
 20
-4.409481
 30
0.0
  0
LWPOLYLINE
  5
12e
100
AcDbEntity
  8
0
 62
7
100
AcDbPolyline
 90
2
 70
0
 10
155.033980
 20
-89.080381
 30
0.0
 10
155.033980
 20
-4.422181
 30
0.0
  0
LWPOLYLINE
  5
12f
100
AcDbEntity
  8
0
 62
7
100
AcDbPolyline
 90
2
 70
0
 10
136.009380
 20
-122.024181
 30
0.0
 10
155.033980
 20
-89.080381
 30
0.0
  0
LWPOLYLINE
  5
130
100
AcDbEntity
  8
0
 62
7
100
AcDbPolyline
 90
2
 70
0
 10
119.499380
 20
-112.524581
 30
0.0
 10
136.009380
 20
-122.024181
 30
0.0
  0
LWPOLYLINE
  5
131
100
AcDbEntity
  8
0
 62
7
100
AcDbPolyline
 90
2
 70
0
 10
59.301380
 20
-104.244181
 30
0.0
 10
119.499380
 20
-112.524581
 30
0.0
  0
LWPOLYLINE
  5
132
100
AcDbEntity
  8
0
 62
7
100
AcDbPolyline
 90
2
 70
0
 10
2.303780
 20
-80.469781
 30
0.0
 10
59.301380
 20
-104.244181
 30
0.0
  0
LWPOLYLINE
  5
133
100
AcDbEntity
  8
0
 62
7
100
AcDbPolyline
 90
2
 70
0
 10
2.303780
 20
-42.445981
 30
0.0
 10
2.303780
 20
-80.469781
 30
0.0
  0
LWPOLYLINE
  5
134
100
AcDbEntity
  8
0
 62
7
100
AcDbPolyline
 90
2
 70
0
 10
7.028180
 20
-23.421381
 30
0.0
 10
2.303780
 20
-42.445981
 30
0.0
  0
LWPOLYLINE
  5
135
100
AcDbEntity
  8
0
 62
7
100
AcDbPolyline
 90
2
 70
0
 10
7.028180
 20
-23.421381
 30
0.0
 10
16.553180
 20
-4.422181
 30
0.0
  0
ENDSEC
  0
SECTION
  2
OBJECTS
  0
DICTIONARY
  5
C
330
0
100
AcDbDictionary
  3
ACAD_GROUP
350
D
  3
ACAD_MLINESTYLE
350
17
  0
DICTIONARY
  5
D
330
C
100
AcDbDictionary
  0
DICTIONARY
  5
1A
330
C
100
AcDbDictionary
  0
DICTIONARY
  5
17
330
C
100
AcDbDictionary
  3
STANDARD
350
18
  0
DICTIONARY
  5
19
330
C
100
AcDbDictionary
  0
ENDSEC
  0
EOF
